<svg width="44" height="29" viewBox="0 0 44 29" fill="none" xmlns="http://www.w3.org/2000/svg">
<path d="M2.44444 29H41.5556C42.9 29 44 27.9125 44 26.5833C44 25.2542 42.9 24.1667 41.5556 24.1667H2.44444C1.1 24.1667 0 25.2542 0 26.5833C0 27.9125 1.1 29 2.44444 29ZM2.44444 16.9167H41.5556C42.9 16.9167 44 15.8292 44 14.5C44 13.1708 42.9 12.0833 41.5556 12.0833H2.44444C1.1 12.0833 0 13.1708 0 14.5C0 15.8292 1.1 16.9167 2.44444 16.9167ZM0 2.41667C0 3.74583 1.1 4.83333 2.44444 4.83333H41.5556C42.9 4.83333 44 3.74583 44 2.41667C44 1.0875 42.9 0 41.5556 0H2.44444C1.1 0 0 1.0875 0 2.41667Z" fill="#B6B6B6"/>
</svg>
