<svg width="19" height="24" viewBox="0 0 19 24" fill="none" xmlns="http://www.w3.org/2000/svg">
<path d="M1.35714 21.3333C1.35714 22.8 2.57857 24 4.07143 24H14.9286C16.4214 24 17.6429 22.8 17.6429 21.3333V8C17.6429 6.53333 16.4214 5.33333 14.9286 5.33333H4.07143C2.57857 5.33333 1.35714 6.53333 1.35714 8V21.3333ZM5.42857 8H13.5714C14.3179 8 14.9286 8.6 14.9286 9.33333V20C14.9286 20.7333 14.3179 21.3333 13.5714 21.3333H5.42857C4.68214 21.3333 4.07143 20.7333 4.07143 20V9.33333C4.07143 8.6 4.68214 8 5.42857 8ZM14.25 1.33333L13.2864 0.386667C13.0421 0.146667 12.6893 0 12.3364 0H6.66357C6.31071 0 5.95786 0.146667 5.71357 0.386667L4.75 1.33333H1.35714C0.610714 1.33333 0 1.93333 0 2.66667C0 3.4 0.610714 4 1.35714 4H17.6429C18.3893 4 19 3.4 19 2.66667C19 1.93333 18.3893 1.33333 17.6429 1.33333H14.25Z" fill="#D3D3D3" fill-opacity="0.9"/>
</svg>
